<svg width="41" height="33" viewBox="0 0 41 33" fill="none" xmlns="http://www.w3.org/2000/svg">
<path d="M11.63 15.138C13.698 15.326 15.2647 15.9527 16.33 17.018C17.3953 18.0833 17.928 19.9007 17.928 22.47V23.88C17.928 25.384 17.8653 26.512 17.74 27.264C17.6773 28.016 17.3953 28.8933 16.894 29.896C15.954 31.7133 13.5727 32.622 9.75 32.622C5.92733 32.622 3.38933 31.9953 2.136 30.742C0.945333 29.4887 0.35 27.1073 0.35 23.598C0.35 22.0313 0.412667 20.872 0.538 20.12C0.976667 14.6053 2.606 9.90533 5.426 6.02C8.246 2.072 11.818 0.0979962 16.142 0.0979962C16.5807 0.0979962 16.9567 0.442662 17.27 1.13199C17.646 1.75866 17.834 2.60466 17.834 3.67C17.834 4.67266 17.6773 5.48733 17.364 6.114C17.1133 6.74066 16.8 7.11666 16.424 7.242C16.1107 7.30467 15.86 7.36733 15.672 7.43C15.484 7.43 15.1393 7.58666 14.638 7.9C14.1993 8.15066 13.792 8.52666 13.416 9.028C12.3507 10.2813 11.7553 12.318 11.63 15.138ZM34.566 15.138C36.634 15.326 38.2007 15.984 39.266 17.112C40.394 18.1773 40.958 20.4333 40.958 23.88C40.958 27.5773 40.3 29.9273 38.984 30.93C37.4173 32.058 35.0047 32.622 31.746 32.622C28.55 32.622 26.3253 31.9953 25.072 30.742C23.8813 29.4887 23.286 27.1073 23.286 23.598C23.286 22.0313 23.3487 20.872 23.474 20.12C23.9127 14.6053 25.542 9.90533 28.362 6.02C31.2447 2.072 34.848 0.0979962 39.172 0.0979962C39.6107 0.0979962 39.9867 0.442662 40.3 1.13199C40.676 1.75866 40.864 2.60466 40.864 3.67C40.864 4.67266 40.7073 5.48733 40.394 6.114C40.1433 6.74066 39.83 7.11666 39.454 7.242C39.1407 7.30467 38.89 7.36733 38.702 7.43C38.514 7.43 38.1693 7.58666 37.668 7.9C37.1667 8.15066 36.728 8.52666 36.352 9.028C35.2867 10.2813 34.6913 12.318 34.566 15.138Z" fill="#E85248"/>
</svg>
